<?xml version="1.0" encoding="utf-8"?>
<!-- Generator: Adobe Illustrator 25.4.0, SVG Export Plug-In . SVG Version: 6.00 Build 0)  -->
<svg version="1.1" xmlns="http://www.w3.org/2000/svg" xmlns:xlink="http://www.w3.org/1999/xlink" x="0px" y="0px"
	 viewBox="0 0 500 500" style="enable-background:new 0 0 500 500;" xml:space="preserve">
<style type="text/css">
	.st0{fill:#92E3A9;}
	.st1{opacity:0.7;fill:#FFFFFF;}
	.st2{fill:none;stroke:#263238;stroke-linecap:round;stroke-linejoin:round;stroke-miterlimit:10;}
	.st3{fill:#92E3A9;stroke:#263238;stroke-linecap:round;stroke-linejoin:round;stroke-miterlimit:10;}
	.st4{fill:none;stroke:#263238;stroke-miterlimit:10;}
	.st5{fill:#FFFFFF;stroke:#263238;stroke-linecap:round;stroke-linejoin:round;stroke-miterlimit:10;}
	.st6{fill:#263238;stroke:#263238;stroke-linecap:round;stroke-linejoin:round;stroke-miterlimit:10;}
	.st7{fill:#263238;stroke:#263238;stroke-miterlimit:10;}
	.st8{fill:#999999;stroke:#263238;stroke-linecap:round;stroke-linejoin:round;stroke-miterlimit:10;}
	.st9{fill:#BDBDBD;stroke:#263238;stroke-linecap:round;stroke-linejoin:round;stroke-miterlimit:10;}
	.st10{fill:none;stroke:#263238;stroke-width:0.75;stroke-linecap:round;stroke-linejoin:round;stroke-miterlimit:10;}
	.st11{fill:#263238;}
	.st12{fill:#D4D4D4;stroke:#263238;stroke-linecap:round;stroke-linejoin:round;stroke-miterlimit:10;}
</style>
<g id="Background_Simple">
	<g>
		<path class="st0" d="M477.9,234.8c-5.1,43.2-24.8,93.4-64.2,116.5c-59.5,34.9-54.5,88.5-170.7,111.8c-18.1,3.6-35.3,5.2-51.5,4.9
			c-8.7-0.2-17.1-0.9-25.3-2.1C92.3,455.1,42.6,403.8,24.4,341.8c-24-81.5,23.9-134.8,55.7-167c31.8-32.1,55-132.3,169-156.1
			c17.4-3.6,35.2-5.5,52.9-5c40.6,1,84.8,14.3,115.4,42.1c2.3,2.1,4.5,4.3,6.7,6.5C466.8,106,484.8,175.9,477.9,234.8z"/>
		<path class="st1" d="M477.9,234.8c-5.1,43.2-24.8,93.4-64.2,116.5c-59.5,34.9-54.5,88.5-170.7,111.8c-18.1,3.6-35.3,5.2-51.5,4.9
			c-8.7-0.2-17.1-0.9-25.3-2.1C92.3,455.1,42.6,403.8,24.4,341.8c-24-81.5,23.9-134.8,55.7-167c31.8-32.1,55-132.3,169-156.1
			c17.4-3.6,35.2-5.5,52.9-5c40.6,1,84.8,14.3,115.4,42.1c2.3,2.1,4.5,4.3,6.7,6.5C466.8,106,484.8,175.9,477.9,234.8z"/>
	</g>
</g>
<g id="Floor">
	<g>
		<line class="st2" x1="345.3" y1="462" x2="484.5" y2="462"/>
		<line class="st2" x1="24.8" y1="462" x2="336.2" y2="462"/>
	</g>
</g>
<g id="Plant">
	<g>
		<g>
			<path class="st3" d="M33,255.6c0,0-3.4,9.4-10.7,10.7c-7.3,1.3-20.2-12.9-12-20.2C18.4,238.9,29.6,250.5,33,255.6z"/>
			<path class="st3" d="M44.1,209.3c0,0-10.7,26.2-6.4,39c4.3,12.9,30.9,22.3,38.6,5.6c7.7-16.7-9.4-40.3-15.9-45.5
				C54,203.3,46.3,205,44.1,209.3z"/>
			<path class="st3" d="M106.8,220.5c0,0-18.4,16.7-20.6,33.5c-2.1,16.7,10.3,22.7,23.2,20.6c12.9-2.1,19.3-34.7,15.4-49.8
				C120.9,209.7,106.8,220.5,106.8,220.5z"/>
			<g>
				<path class="st3" d="M110.2,313.1c0,0-20.6,0.9-21.4,10.7c-0.9,9.9,9,12,18.9,3.4C117.5,318.7,118.8,313.5,110.2,313.1z"/>
				<path class="st4" d="M89.1,326.2c0,0,16.2-7.4,23.5-8.7"/>
			</g>
			<g>
				<path class="st3" d="M114.8,377.6c0,0-15.1-14-22.7-7.6c-7.6,6.3-2.2,14.9,10.9,15.8C116,386.7,120.5,384,114.8,377.6z"/>
				<path class="st4" d="M90.6,371.9c0,0,16.7,6.3,22.8,10.5"/>
			</g>
			<g>
				<path class="st3" d="M35,373.5c0,0,20.8-19.3,31.3-10.5c10.5,8.7,3,20.5-15,21.8C33.4,386.1,27.1,382.3,35,373.5z"/>
				<path class="st4" d="M68.3,365.6c0,0-23,8.6-31.4,14.5"/>
			</g>
			<path class="st3" d="M59.1,333.7c0,0-2.1,10.3-9.9,14.2c-7.7,3.9-21.4-4.3-14.2-16.7C42.4,318.7,55.3,328.5,59.1,333.7z"/>
			<path class="st3" d="M41.1,301.5c0,0-3.9-8.6-18.9-3c-15,5.6-21,14.2-11.6,17.2C20.1,318.7,41.1,301.5,41.1,301.5z"/>
			<path class="st4" d="M38.3,301.1c0,0-15.9,1.7-24.5,9"/>
			<path class="st3" d="M84,198.6c0,0,2.6,6,7.7,4.7c5.1-1.3,6.4-9,14.6-6.9c8.1,2.1,15,11.6,15,7.3c0-4.3-10.3-15.4-21.9-15.4
				C87.9,188.3,84.4,193,84,198.6z"/>
			<path class="st4" d="M41.1,301.5c0,0,18.5-3.5,26.2,17c0.8,2,1.4,4.1,1.9,6.3"/>
			<path class="st3" d="M118.2,281.6c0,0,3.9-8.6,18.9-3c15,5.6,21,14.2,11.6,17.2C139.2,298.8,118.2,281.6,118.2,281.6z"/>
			<path class="st4" d="M121.6,282.2c0,0,15.5-0.9,22.8,8.2"/>
			<path class="st4" d="M118.2,281.6c0,0-6.1-1.2-12.8,1.7"/>
			<path class="st4" d="M51,266.3c-9.1-9.2-18-10.6-18-10.6s-13.2-3.5-18.4,1.2"/>
			<g>
				<line class="st4" x1="52.8" y1="218.8" x2="52" y2="215.2"/>
				<path class="st4" d="M73.7,408.4c0,0,1.9-73.9,0-96.3c-1.9-22.4-10.9-48.7-10.9-48.7l-9.1-40.8"/>
				<line class="st4" x1="111.8" y1="234.6" x2="113.5" y2="231.1"/>
				<path class="st4" d="M78.2,408.3c0,0,0.6-67.4,3.2-86.6c2.6-19.2,12.8-49.3,12.8-49.3l15.7-33.7"/>
				<path class="st4" d="M89.1,326.2c0,0-4.5,38.6-7,82.2"/>
				<path class="st4" d="M67.3,408.3c0,0,1.3-61.6-1.3-69.9c-2.6-8.3-6.9-4.7-6.9-4.7S47.3,335.1,43,342"/>
				<path class="st4" d="M70.2,329.6c3.4,18.8,0.3,78.8,0.3,78.8"/>
				<path class="st4" d="M101.8,285.4c-3.7,2.5-7.3,6.6-9.7,13.2c-7.7,20.5-6.8,109.8-6.8,109.8"/>
				<path class="st4" d="M53.2,268.7c4,4.7,7.9,11.1,10.9,19.6c10.3,29.5,14.1,105.8,12.2,119.9"/>
				<path class="st4" d="M79.3,296.3c-0.6,37.2-1.1,112-1.1,112"/>
			</g>
			<path class="st4" d="M79.3,291.7c0.4-24.6,0.9-48.7,1.4-61.6c1.3-33.3,3.3-31.5,3.3-31.5s2.4-7.5,15.7-6.6"/>
			<g>
				<path class="st3" d="M62.9,319.8c0,0-10.7-9.6-6.4-14.3c4.3-4.7,30.9-8.2,38.6-2c7.7,6.1-9.4,14.7-15.9,16.6
					C72.8,322,65.1,321.3,62.9,319.8z"/>
				<path class="st4" d="M72.8,311.9c-0.1,1-0.2,1.9-0.2,2.9"/>
				<path class="st4" d="M76.5,300.8c0,0-1.6,3.2-2.8,7.1"/>
			</g>
			<g>
				<path class="st3" d="M62.9,382.3c0,0-10.7-9.6-6.4-14.3c4.3-4.7,30.9-8.2,38.6-2c7.7,6.1-9.4,14.7-15.9,16.6
					C72.8,384.5,65.1,383.8,62.9,382.3z"/>
				<path class="st4" d="M76.5,363.3c0,0-3.9,7.8-3.9,14"/>
			</g>
			<g>
				<path class="st3" d="M70.9,355.8c0,0-7.3-6.5-4.4-9.7c2.9-3.2,21-5.5,26.2-1.4c5.2,4.2-6.4,10-10.8,11.3
					C77.6,357.3,72.4,356.9,70.9,355.8z"/>
				<path class="st4" d="M80.1,342.9c0,0-2.7,5.3-2.7,9.5"/>
			</g>
		</g>
		<rect x="60.8" y="397.6" class="st5" width="29" height="64.4"/>
	</g>
</g>
<g id="Tab_2">
	<g>
		<path class="st6" d="M364.8,367.7h-91.1c-2.4,0-4.4-2-4.4-4.4v-79c0-2.4,2-4.4,4.4-4.4h91.1c2.4,0,4.4,2,4.4,4.4v79
			C369.2,365.8,367.2,367.7,364.8,367.7z"/>
		<path class="st5" d="M361.6,363h-91.1c-2.4,0-4.4-2-4.4-4.4v-79c0-2.4,2-4.4,4.4-4.4h91.1c2.4,0,4.4,2,4.4,4.4v79
			C366,361,364.1,363,361.6,363z"/>
		<path class="st3" d="M366,286.3v-6.7c0-2.4-2-4.4-4.4-4.4h-91.1c-2.4,0-4.4,2-4.4,4.4v6.7H366z"/>
		<g>
			<circle class="st5" cx="339.7" cy="281.1" r="2.7"/>
			<path class="st5" d="M350.8,281.1c0-1.5-1.2-2.7-2.7-2.7c-1.5,0-2.7,1.2-2.7,2.7s1.2,2.7,2.7,2.7
				C349.6,283.7,350.8,282.5,350.8,281.1z"/>
			<circle class="st5" cx="356.6" cy="281.1" r="2.7"/>
		</g>
		<path class="st4" d="M353.7,292.3h-73.9c-1.3,0-2.3,1-2.3,2.3v19.7v8.3l5.3-8.3h70.8c1.3,0,2.3-1,2.3-2.3v-17.4
			C355.9,293.4,354.9,292.3,353.7,292.3z"/>
		<path class="st4" d="M279.8,327.4h73.9c1.3,0,2.3,1,2.3,2.3v19.7v8.3l-5.3-8.3h-70.8c-1.3,0-2.3-1-2.3-2.3v-17.4
			C277.5,328.4,278.5,327.4,279.8,327.4z"/>
		<g>
			<g>
				<circle class="st3" cx="291" cy="303.2" r="6.7"/>
				<circle class="st5" cx="291" cy="301.2" r="2.8"/>
				<path class="st5" d="M291,309.9c1.5,0,2.8-0.5,3.9-1.3c0-2.1-1.8-3.9-3.9-3.9c-2.1,0-3.9,1.7-3.9,3.9
					C288.2,309.4,289.5,309.9,291,309.9z"/>
			</g>
			<g>
				<line class="st4" x1="302.4" y1="297.6" x2="325.1" y2="297.6"/>
				<line class="st4" x1="302.9" y1="304.1" x2="349.7" y2="304.1"/>
				<line class="st4" x1="302.9" y1="308.2" x2="349.7" y2="308.2"/>
			</g>
		</g>
		<g>
			<g>
				<circle class="st6" cx="291" cy="339" r="6.7"/>
				<circle class="st5" cx="291" cy="337" r="2.8"/>
				<path class="st5" d="M291,345.6c1.5,0,2.8-0.5,3.9-1.3c0-2.1-1.8-3.9-3.9-3.9c-2.1,0-3.9,1.7-3.9,3.9
					C288.2,345.2,289.5,345.6,291,345.6z"/>
			</g>
			<g>
				<line class="st4" x1="302.4" y1="333.4" x2="325.1" y2="333.4"/>
				<line class="st4" x1="302.9" y1="339.9" x2="349.7" y2="339.9"/>
				<line class="st4" x1="302.9" y1="344" x2="349.7" y2="344"/>
			</g>
		</g>
	</g>
</g>
<g id="Tab_1">
	<g>
		<g>
			<g>
				<path class="st6" d="M249,303H124.5c-1.9,0-3.5-1.5-3.5-3.5v-68.5c0-1.1,0.9-2.1,2.1-2.1h127.3c1.1,0,2.1,0.9,2.1,2.1v68.5
					C252.5,301.5,250.9,303,249,303z"/>
				<path class="st6" d="M252.5,241.1H121.1v-10c0-1.1,0.9-2.1,2.1-2.1h127.3c1.1,0,2.1,0.9,2.1,2.1V241.1z"/>
				<circle class="st6" cx="225.6" cy="235.3" r="2.7"/>
				<circle class="st6" cx="234" cy="235.3" r="2.7"/>
				<circle class="st6" cx="242.5" cy="235.3" r="2.7"/>
			</g>
			<rect x="135.2" y="252.6" class="st7" width="27" height="25.8"/>
			<line class="st7" x1="171.2" y1="255.6" x2="241.9" y2="255.6"/>
			<line class="st7" x1="171.2" y1="264" x2="241.9" y2="264"/>
			<line class="st7" x1="171.2" y1="272.4" x2="241.9" y2="272.4"/>
			<line class="st7" x1="171.2" y1="280.8" x2="241.9" y2="280.8"/>
		</g>
		<g>
			<g>
				<path class="st5" d="M245.9,298.3H121.4c-1.9,0-3.5-1.5-3.5-3.5v-68.5c0-1.1,0.9-2.1,2.1-2.1h127.3c1.1,0,2.1,0.9,2.1,2.1v68.5
					C249.3,296.7,247.8,298.3,245.9,298.3z"/>
				<path class="st3" d="M249.3,236.4H117.9v-10c0-1.1,0.9-2.1,2.1-2.1h127.3c1.1,0,2.1,0.9,2.1,2.1V236.4z"/>
				<circle class="st5" cx="222.4" cy="230.5" r="2.7"/>
				<circle class="st5" cx="230.9" cy="230.5" r="2.7"/>
				<circle class="st5" cx="239.3" cy="230.5" r="2.7"/>
			</g>
			<rect x="132" y="247.9" class="st4" width="27" height="25.8"/>
			<line class="st4" x1="168" y1="250.9" x2="238.7" y2="250.9"/>
			<line class="st4" x1="168" y1="259.3" x2="238.7" y2="259.3"/>
			<line class="st4" x1="168" y1="267.7" x2="238.7" y2="267.7"/>
			<line class="st4" x1="168" y1="276.1" x2="238.7" y2="276.1"/>
		</g>
	</g>
</g>
<g id="Chart_3">
	<g>
		<path class="st6" d="M364.8,262.5h-91.1c-2.4,0-4.4-2-4.4-4.4v-79c0-2.4,2-4.4,4.4-4.4h91.1c2.4,0,4.4,2,4.4,4.4v79
			C369.2,260.5,367.2,262.5,364.8,262.5z"/>
		<path class="st5" d="M361.6,257.7h-91.1c-2.4,0-4.4-2-4.4-4.4v-79c0-2.4,2-4.4,4.4-4.4h91.1c2.4,0,4.4,2,4.4,4.4v79
			C366,255.8,364.1,257.7,361.6,257.7z"/>
		<g>
			<g>
				<rect x="278.9" y="205.1" class="st6" width="9.2" height="42.6"/>
				<rect x="291.9" y="212" class="st3" width="9.2" height="35.7"/>
				<rect x="305" y="217.8" class="st5" width="9.2" height="29.9"/>
				<rect x="318" y="200.1" class="st6" width="9.2" height="47.6"/>
				<rect x="331.1" y="205.9" class="st3" width="9.2" height="41.8"/>
				<rect x="344.1" y="185.9" class="st5" width="9.2" height="61.8"/>
			</g>
			<g>
				<g>
					<line class="st4" x1="279.5" y1="181.5" x2="288.7" y2="181.5"/>
					<line class="st4" x1="279.5" y1="185.3" x2="288.7" y2="185.3"/>
					<line class="st4" x1="279.5" y1="189.2" x2="288.7" y2="189.2"/>
				</g>
				<g>
					<line class="st4" x1="291.8" y1="181.5" x2="329" y2="181.5"/>
					<line class="st4" x1="291.8" y1="185.3" x2="329" y2="185.3"/>
					<line class="st4" x1="291.8" y1="189.2" x2="329" y2="189.2"/>
				</g>
			</g>
		</g>
	</g>
</g>
<g id="Chart_2">
	<g>
		<path class="st6" d="M364.8,158.5h-91.1c-2.4,0-4.4-2-4.4-4.4v-79c0-2.4,2-4.4,4.4-4.4h91.1c2.4,0,4.4,2,4.4,4.4v79
			C369.2,156.6,367.2,158.5,364.8,158.5z"/>
		<path class="st5" d="M361.6,153.8h-91.1c-2.4,0-4.4-2-4.4-4.4v-79c0-2.4,2-4.4,4.4-4.4h91.1c2.4,0,4.4,2,4.4,4.4v79
			C366,151.8,364.1,153.8,361.6,153.8z"/>
		<g>
			<g>
				<circle class="st5" cx="313.7" cy="108.1" r="28"/>
				<path class="st6" d="M340.8,101.3c-1.2-4.8-3.6-9.3-7.4-13c-10.9-10.9-28.7-10.9-39.6,0l19.8,19.8L340.8,101.3z"/>
				<path class="st3" d="M340.8,101.3l-27.2,6.7l-8.1,26.8c9.6,2.9,20.3,0.5,27.9-7C340.7,120.7,343.1,110.5,340.8,101.3
					L340.8,101.3z"/>
			</g>
			<polyline class="st4" points="324.8,90.4 334,78.5 339.7,78.5 			"/>
			<g>
				<line class="st4" x1="345.1" y1="78.9" x2="354.3" y2="78.9"/>
				<line class="st4" x1="345.1" y1="82.8" x2="354.3" y2="82.8"/>
				<line class="st4" x1="345.1" y1="86.6" x2="354.3" y2="86.6"/>
			</g>
			<g>
				<line class="st4" x1="345.1" y1="128.8" x2="354.3" y2="128.8"/>
				<line class="st4" x1="345.1" y1="132.6" x2="354.3" y2="132.6"/>
				<line class="st4" x1="345.1" y1="136.5" x2="354.3" y2="136.5"/>
			</g>
			<g>
				<line class="st4" x1="273.8" y1="128" x2="283" y2="128"/>
				<line class="st4" x1="273.8" y1="131.9" x2="283" y2="131.9"/>
				<line class="st4" x1="273.8" y1="135.7" x2="283" y2="135.7"/>
			</g>
			<polyline class="st4" points="297.9,126.9 294.5,135.7 285.3,135.7 			"/>
			<polyline class="st4" points="335.1,116.1 350.5,116.1 350.5,121.1 			"/>
		</g>
	</g>
</g>
<g id="Chart_1">
	<g>
		<path class="st6" d="M245.1,158.8H154c-2.4,0-4.4-2-4.4-4.4v-79c0-2.4,2-4.4,4.4-4.4h91.1c2.4,0,4.4,2,4.4,4.4v79
			C249.4,156.9,247.5,158.8,245.1,158.8z"/>
		<path class="st5" d="M240.8,153.8h-91.1c-2.4,0-4.4-2-4.4-4.4v-79c0-2.4,2-4.4,4.4-4.4h91.1c2.4,0,4.4,2,4.4,4.4v79
			C245.2,151.8,243.2,153.8,240.8,153.8z"/>
		<g>
			<g>
				<line class="st4" x1="155.7" y1="137.1" x2="155.7" y2="140.5"/>
				<line class="st4" x1="163.9" y1="137.1" x2="163.9" y2="140.5"/>
				<line class="st4" x1="172" y1="137.1" x2="172" y2="140.5"/>
				<line class="st4" x1="180.1" y1="137.1" x2="180.1" y2="140.5"/>
				<line class="st4" x1="188.3" y1="137.1" x2="188.3" y2="140.5"/>
				<line class="st4" x1="196.4" y1="137.1" x2="196.4" y2="140.5"/>
				<line class="st4" x1="204.5" y1="137.1" x2="204.5" y2="140.5"/>
				<line class="st4" x1="212.6" y1="137.1" x2="212.6" y2="140.5"/>
				<line class="st4" x1="220.8" y1="137.1" x2="220.8" y2="140.5"/>
				<line class="st4" x1="228.9" y1="137.1" x2="228.9" y2="140.5"/>
				<line class="st4" x1="237" y1="137.1" x2="237" y2="140.5"/>
			</g>
			<polygon class="st3" points="233.6,89.7 224.8,94.5 217.7,80.2 208.6,92.1 200.5,85 192.7,76.2 184.5,85.7 176.4,108.7 
				167.6,100.2 158.8,106.7 158.8,128 233.6,128 			"/>
			<g>
				<g>
					<line class="st4" x1="159" y1="76" x2="168.2" y2="76"/>
					<line class="st4" x1="159" y1="79.8" x2="168.2" y2="79.8"/>
					<line class="st4" x1="159" y1="83.7" x2="168.2" y2="83.7"/>
				</g>
			</g>
			<polygon class="st6" points="233.6,108.5 224.8,111.7 217.7,95.9 208.6,107 200.5,104.3 192.7,121.2 184.5,98.5 176.4,121.2 
				167.6,112.8 158.8,123.9 158.8,132.1 233.6,132.1 			"/>
		</g>
	</g>
</g>
<g id="Character_2">
	<g>
		<path class="st6" d="M413,114.5c0,0-3.3-8.8-12.8-7.8c-9.5,0.9-13.8,8.5-12.1,13.5c1.7,5,2.6,6.6,2.6,6.6s-3.1-1.4-2.1,3.6
			c0.9,5,8.1,4,9.3,3.6C399,133.5,404.2,120.2,413,114.5z"/>
		<path class="st6" d="M352.6,199.7l-16.8,8.4c-1.3,0.7-1.4,2.6-0.1,3.3l44.9,25.3c0.8,0.4,1.8,0.3,2.3-0.4l10.5-12.3
			c0.8-0.9,0.5-2.3-0.5-2.9l-38.6-21.4C353.8,199.4,353.1,199.4,352.6,199.7z"/>
		<g>
			<path class="st5" d="M393.6,214.8l-7.1-4.6c0,0-5.3-5.9-7.3-7c-2-1-15.4,1.4-15.4,1.4l29.4,16.6L393.6,214.8z"/>
			<path class="st5" d="M379.2,207.6c0,0-5.2,0.2-8.4-1.1c-3.2-1.4-5.1-0.7-3.4,2c1.7,2.7,6.9,2.5,6.9,2.5s4.6,5.5,10.1,3.4"/>
		</g>
		<g>
			<g>
				<path class="st5" d="M451,446.4c0,0,3,11.4,2.7,13.4c-0.2,2-6.4,3.7-9.9,3.7c-3.5,0-10.4,1.2-10.4,1.2l0.2-18.4H451z"/>
				<path class="st5" d="M453.7,459.8c0.1-0.5-0.1-1.6-0.3-3c-2,1.1-4.9,2.4-7.6,3.2c-4.2,1.2-10.2,1.3-12.4,1.3l0,3.5
					c0,0,6.9-1.2,10.4-1.2C447.3,463.5,453.5,461.8,453.7,459.8z"/>
			</g>
			<path class="st8" d="M429.9,336.8c0,0,3.2,27,4.5,32.2c1.2,5.2,7.4,14.1,9.9,28c2.5,13.9,7.2,46.1,7.2,46.9c0,0.7,0.5,3,0.7,4.5
				c0,0-5.5,2.2-9.4,1.7c-4-0.5-7.4-1.5-7.4-1.5s1.7-10.7-2-29.8s-7.4-38.9-9.7-52.8S429.9,336.8,429.9,336.8z"/>
		</g>
		<g>
			<path class="st5" d="M417.3,443.5c0,0-1.5,2.5-5.7,6.2c-4.2,3.7-12.2,7.7-14.4,8.7c-2.2,1-4,1-3.5,3.2c0.5,2.2,4.2,4,15.4,4
				c11.2,0,23.1-0.5,24.3-0.7c1.2-0.2,5-0.2,5-3c0-2.7-1.2-13.6-1.2-13.6L417.3,443.5z"/>
			<path class="st5" d="M433.4,464.8c1.2-0.2,5-0.2,5-3c0-0.4,0-1-0.1-1.7c-4.2,0.6-13.9,1.7-24.7,2.7c-9.6,0.8-16.3-0.8-19.9-2
				c0,0.2,0,0.5,0.1,0.8c0.5,2.2,4.2,4,15.4,4C420.2,465.5,432.2,465,433.4,464.8z"/>
		</g>
		<path class="st9" d="M391,279.8c0,0-0.2,19.6,2.5,41.7c2.7,22.1,10.7,48.9,10.7,48.9s4,21.6,5.2,29c1.2,7.4,7.7,36.7,7.7,36.7
			l-2.7,3.7l0.5,6.4c0,0,2.2,0.5,9.9,2.2c7.7,1.7,12.4,1.5,12.4,1.5s0.5-12.9,0.2-14.6c-0.2-1.7-1.7-9.9-2-12.6
			c-0.2-2.7,0.5-33-1.2-39.9c-1.7-6.9-4.7-17.1-4.7-26c0-8.9,6.7-52.6,6.7-52.6s7.2-10.2,7.2-16.1c0-6-0.7-8.9-0.7-8.9L391,279.8z"
			/>
		<path class="st10" d="M426.1,427.6c0.6,5.5,0.8,9.1,0.8,9.1s-1.6,0.8-0.8,3.6c0.8,2.8,1.2,4.8,1.2,4.8"/>
		<path class="st10" d="M410.1,308c-0.6,9.9-0.7,23.4,1.3,37.5c4,27.9,10.8,53,12.8,66.2c0.6,4,1.1,7.8,1.5,11.3"/>
		<path class="st10" d="M411.8,292.1c0,0-0.8,4.4-1.4,11.5"/>
		<g>
			<path class="st6" d="M438.9,122.6c0,0,3.1-12.3,21.6-10.9c18.5,1.4,18.3,18.3,18.3,18.3l-4-1.9c0,0,3.3,9.7-0.5,16.8
				c-3.8,7.1-13.5,11.1-19.9,10s-13.3-7.1-14.2-10.4C439.1,141.1,442.7,129.5,438.9,122.6z"/>
			<path class="st5" d="M402.1,121.2c0,0-1.4,2.4-4.3,7.4c-2.8,5-1.7,9.5-3.6,11.9c-1.9,2.4-7.1,2.1-6.4,4.5c0.7,2.4,3.8,4,3.8,4
				s0,13.3,1.4,14.9c1.4,1.7,12.3-1.2,12.3-1.2s2.1,3.3,0.7,10.7c-1.4,7.4-14.2,27.8-15.9,38c-1.7,10.2,4,35.6,4,35.6l-5.5,37
				c0,0,13.8,5.2,30.1,3.8c16.4-1.4,26.3-4.7,26.3-4.7L434.4,240c0,0,0.9-30.4-1.2-47.2c-2.1-16.8-7.6-20.9-7.6-27
				c0-6.2,7.8-9.5,12.8-15.4c2.3-2.7,8.3-13,2.4-25.9c-3.9-8.4-16.4-11.6-24.9-11.9C407.3,112.4,402.1,121.2,402.1,121.2z"/>
			<path class="st6" d="M405.4,162.7l5.2-1.2l-3.2,6.5C407.4,168,406.7,164.7,405.4,162.7z"/>
			<path class="st3" d="M445.3,283L434.4,240c0,0,0.9-30.4-1.2-47.2c-0.6-4.5-1.4-8-2.2-11c-3.5-2.7-8.9-6.1-14.4-6.6
				c-6.4-0.5-12.7,6.9-16.1,11.5c-4.2,8.5-9.2,18.4-10.2,24.5c-1.7,10.2,4,35.6,4,35.6l-5.5,37c0,0,13.8,5.2,30.1,3.8
				C435.3,286.3,445.3,283,445.3,283z"/>
			<path class="st6" d="M415.8,112.6c-8.5-0.2-13.8,8.5-13.8,8.5s-0.7,1.2-2.2,3.8c1.5-1.8,6.9-7.5,9.1-1.4
				c1.3,3.6-1.9,8.5-0.2,10.2c1.7,1.7,5,5.5,4.5,6.2c-0.5,0.7-0.7,2.4-0.7,2.4s4.3-6.2,7.6-2.4c3.3,3.8-1.2,10.9-1.2,10.9l-2.8,0.9
				c0,0,9.3,10.4,10.9,10.4c0.5,0,1.7-3.6,3.8-4.3c2.5-2.3,4.5-3.9,7.6-7.6c2.3-2.7,8.3-13,2.4-25.9
				C436.9,116.1,424.4,112.9,415.8,112.6z"/>
			<path class="st11" d="M399.7,139.8c-0.3,1.2-0.9,2.1-1.4,2c-0.5-0.1-0.7-1.2-0.5-2.4c0.3-1.2,0.9-2.1,1.4-2
				C399.8,137.5,400,138.5,399.7,139.8z"/>
			<path class="st2" d="M397.8,134c0,0,2.6-2.8,4.3,0.7"/>
			<path class="st2" d="M393.6,151.8c0,0,0.5,0.9,3.1,0"/>
		</g>
		<g>
			<path class="st3" d="M409.2,188.1c0,0-3.6,5-5,14.2c-1.4,9.3-0.2,39.4-0.2,39.4s-20.2-5.7-26.8-9c-6.6-3.3-8.8-4.7-8.8-4.7
				s-2.1-5-3.8-6.9c-1.7-1.9-6.2-2.4-7.8-3.6c-1.7-1.2-2.8-5-5-3.6c-2.1,1.4-1.2,3.3-0.2,4c0.9,0.7,4.5,4.3,4.5,4.3l-9-4
				c0,0-0.7,3.6,0.5,4.7c1.2,1.2,3.6,3.3,3.6,3.3s3.6,5,5.7,6.2c2.1,1.2,5.9,2.1,6.6,2.4c2.1,0.7,4.3,2.5,6.2,3.7
				c4,2.4,8.1,4.9,12.1,7.4c6.1,3.7,12.9,6.9,19.8,9.3c4.3,1.5,14.9,6.2,18.6,1.5c1.6-2,1.1-8,1.5-10.5c2.7-15.9,6.1-31.9,6.1-48.1"
				/>
			<path class="st5" d="M396.8,239.6c-6.5-2-15.6-4.9-19.6-6.9c-6.6-3.3-8.8-4.7-8.8-4.7s-2.1-5-3.8-6.9c-1.7-1.9-6.2-2.4-7.8-3.6
				c-1.7-1.2-2.8-5-5-3.6c-2.1,1.4-1.2,3.3-0.2,4c0.9,0.7,4.5,4.3,4.5,4.3l-9-4c0,0-0.7,3.6,0.5,4.7c1.2,1.2,3.6,3.3,3.6,3.3
				s3.6,5,5.7,6.2c2.1,1.2,5.9,2.1,6.6,2.4c2.1,0.7,4.3,2.5,6.2,3.7c4,2.4,8.1,4.9,12.1,7.4c3.8,2.3,7.9,4.4,12.1,6.3L396.8,239.6z"
				/>
			<polyline class="st2" points="410.9,248.6 404,241.7 405.9,248.1 			"/>
		</g>
	</g>
</g>
<g id="Character_1">
	<g>
		<path class="st6" d="M108.1,345c0,0-4.3,25.7-9.9,49.5c-5.6,23.7-4,56.7-4,56.7s-3,6.3-0.3,9.2c2.6,3,6.9,2,7.9,2
			c1,0,7.9-0.3,7.9-0.3s5.3-31.3,7.3-59.7c2-28.4,0.3-71.6-1.6-69.9c-2,1.6-6.3,10.2-6.3,10.2L108.1,345z"/>
		<path class="st6" d="M94.6,261.6c0,0-4,23.1-3,29.7c1,6.6,3.6,14.8,3.6,14.8s8.9,39.6,9.9,42.5c1,3,0,38.2-2,53.7
			c-2,15.5,1.3,25.7,2,30.7c0.7,4.9,0.3,21.1,0.3,21.1l-0.7,9.2c0,0,4.6,1.6,12.9,1.6s25.7,1,25.7,1s10.6-0.3,9.6-4.9
			c-1-4.6-12.9-6.9-16.2-9.9c-3.3-3-5.6-5.6-5.6-5.6s0.3-3.3-0.3-4.9c-0.7-1.6-3.3-1.6-3-4c0.3-2.3,5.9-54.7,10.2-68.3
			c4.3-13.5,7.6-68.9,7.3-78.5c-0.3-9.6-2.3-24.1-2.3-24.1L94.6,261.6z"/>
		<g>
			<path class="st12" d="M98,171.6c0,0-9.7,20.7-11.2,34.9c-1.4,14.2,6.3,49.5,6.3,49.5s-3,8.9-0.8,10.3c2.2,1.4,51.9,4.1,51.9,4.1
				s3-0.4,3-3s-0.8-4.5-1.2-6.7c-0.4-2.2,0.6-47.9-3.9-58c-4.5-10.1-13.6-22.5-13.6-22.5L98,171.6z"/>
			<path class="st2" d="M106.8,255.4c5.5-7.3,13.8-18.4,19.7-27.5"/>
			<path class="st2" d="M100.9,263c0,0,1.1-1.4,2.9-3.7"/>
			<path class="st2" d="M125.7,223.5c0,0-19.1,13.2-21.5,13.9"/>
		</g>
		<g>
			<path class="st5" d="M139.6,116c0,0,3.2-10.7,3.9-14c0.6-3.2,2.2-6.3,2.2-6.3v7.9c0,0,2.4-2.8,5.1-6.3c2.6-3.4,5.1-3.2,4.1,0.4
				c-1,3.7-3.7,7.7-3.9,8.3s-1.2,5.1-2.4,7.7s-4.3,6.1-4.3,6.1L139.6,116z"/>
			<path class="st5" d="M126.4,124.1l13.2-8.1c0,0,3.7-0.4,4.7,3.9c1,4.3,0.4,1.8,0.4,1.8l-10.3,14.6L126.4,124.1z"/>
		</g>
		<g>
			<path class="st5" d="M124.6,118.8c0,0-9.9-10.3-12.4-9.5c-2.4,0.8-1.2,5.1-1.2,5.1s-5.9-2.2-6.1-0.6c-0.2,1.6-0.2,1.6-0.2,1.6
				s-10.5,6.3-13.4,13c-2.8,6.7-3.2,13.2,0,16.8c3.2,3.7,11.2,16.6,11.2,16.6l0.2,6.3l20.1,5.1l1.8-8.5c0,0,9.5,0,10.3-1.4
				s1.2-17,1.2-17l4.3-5.3c0,0-7.7-8.9-8.9-11.6C130.2,126.8,127,121.9,124.6,118.8z"/>
			<path class="st2" d="M134.9,150.2c0,0-0.9,1.3-3.5-1.3"/>
			<path class="st6" d="M124.6,118.8c0,0-9.9-10.3-12.4-9.5c-2.4,0.8-1.2,5.1-1.2,5.1s-5.9-2.2-6.1-0.6c-0.2,1.6-0.2,1.6-0.2,1.6
				s-10.5,6.3-13.4,13c-2.8,6.7-3.2,13.2,0,16.8c2.5,2.8,7.8,11.2,10.1,14.9c1.4,0.1,2.8,0.2,4.1-0.1c5.7-1,9.5-7.5,9.5-7.5
				s-3.9-1.2-4.1-6.3c-0.2-5.1,3-6.1,3-6.1s2.8,3.2,5.3,1.8c2.4-1.4-3-4.1-3.9-6.1c-0.8-2,1.2-4.9,1.6-6.3s-3.9-1-5.5-1.8
				c-1.6-0.8,7.1-4.9,8.9-6.1c1.8-1.2-2-0.4-4.3-1.6C114,118.8,124.6,118.8,124.6,118.8z"/>
			<path class="st11" d="M130.2,134.3c0.4,1.1,0.3,2.1-0.1,2.3s-1.2-0.6-1.6-1.7c-0.4-1.1-0.3-2.1,0.1-2.3S129.8,133.2,130.2,134.3z
				"/>
			<path class="st2" d="M125.6,131c0,0,0.8-5.7,4.5-3.2"/>
			<polyline class="st2" points="115,152.5 118.9,151.5 119.9,154.5 			"/>
		</g>
		<path class="st12" d="M97.4,164.3c0.6,0,32.2,9.9,32.2,9.9l0.6,9.3l-33.7-10.1L97.4,164.3z"/>
		<g>
			<path class="st12" d="M103.3,209.1c0,0,37.7,16.4,48.1,17.4c10.3,1,57.2-47.7,57.2-47.7l-5.5-7.1c0,0-38.3,19.7-43,21.3
				c-4.7,1.6-43.4-10.7-46.2-11.4c-2.8-0.6-9.1,0.4-11.6,3.7"/>
			<line class="st2" x1="115.4" y1="214.4" x2="100.6" y2="215.6"/>
			<line class="st2" x1="198.4" y1="175.2" x2="204.5" y2="182.7"/>
			<path class="st5" d="M203.1,171.8l5.7-7.9c0,0,2-6.1,2.4-7.3c0.4-1.2,4.3-3.9,5.5-5.5c1.2-1.6,2.4-5.3,3.7-4.3
				c1.2,1,1,3.2,0.6,4.3c-0.4,1-2.4,3.2-2.6,4.3c-0.2,1,12.2-2.2,12.2-2.2s2,0.6,1.4,2.2c-0.6,1.6-2.6,4.3-2.6,4.3s-2.4,7.7-4.3,9.5
				c-1.8,1.8-10.3,4.3-10.3,4.3l-6.1,5.5L203.1,171.8z"/>
		</g>
	</g>
</g>
</svg>
